<svg xmlns="http://www.w3.org/2000/svg" data-name="Layer 1" viewBox="0 0 512 512" id="movie-tickets"><path fill="#787681" d="M482,241.5v233a29.99808,29.99808,0,0,1-30,30H60a29.99808,29.99808,0,0,1-30-30v-263H452A29.99808,29.99808,0,0,1,482,241.5Z"></path><path fill="#57565c" d="M452,211.5H407a29.99808,29.99808,0,0,1,30,30v233a29.99808,29.99808,0,0,1-30,30h45a29.99808,29.99808,0,0,0,30-30v-233A29.99808,29.99808,0,0,0,452,211.5Z"></path><path fill="#aeadb3" d="M464.51,71.66992l-62.52,22.76L47.29,223.53,31.21,179.36a19.99722,19.99722,0,0,1,11.96-25.63L394.16,25.98l.01-.01L441.59,8.71a20.00823,20.00823,0,0,1,25.64,11.96L476.46,46.04A19.992,19.992,0,0,1,464.51,71.66992Z"></path><path fill="#8b8893" d="M476.203,45.3335A19.92746,19.92746,0,0,1,464.51,56.66992l-62.52,22.76L47.29,208.53l-15.8208-43.458A19.87991,19.87991,0,0,0,31.21,179.36l16.08,44.17,354.7-129.1001,62.52-22.76A19.992,19.992,0,0,0,476.46,46.04Z"></path><path fill="#e1e1e3" d="M464.51,71.66992l-62.52,22.76L394.16,25.98l.01-.01L441.59,8.71a20.00823,20.00823,0,0,1,25.64,11.96L476.46,46.04A19.992,19.992,0,0,1,464.51,71.66992Z"></path><path fill="#dadadc" d="M464.51,71.66992l-62.52,22.76L400.35,80.09,462.8,57.36a19.95891,19.95891,0,0,0,12.62-14.19007L476.46,46.04A19.992,19.992,0,0,1,464.51,71.66992Z"></path><polygon fill="#e1e1e3" points="269.063 142.808 261.461 74.275 327.898 50.094 336.785 118.159 269.063 142.808"></polygon><polygon fill="#e1e1e3" points="132.053 192.675 124.224 124.225 190.483 100.108 198.803 168.38 132.053 192.675"></polygon><polygon fill="#dadadc" points="269.063 142.808 336.785 118.159 334.854 103.367 267.464 128.393 269.063 142.808"></polygon><polygon fill="#dadadc" points="132.053 192.675 198.803 168.38 197.08 154.244 130.458 178.492 132.053 192.675"></polygon><path fill="#aeadb3" d="M482,241.5v33H30v-63H452A29.99808,29.99808,0,0,1,482,241.5Z"></path><rect width="452" height="105" x="30" y="334.5" fill="#fff"></rect><polygon fill="#e1e1e3" points="192.053 274.5 207.053 211.5 132.053 211.5 117.053 274.5 192.053 274.5"></polygon><polygon fill="#e1e1e3" points="342.053 274.5 357.053 211.5 282.053 211.5 267.053 274.5 342.053 274.5"></polygon><path fill="#e1e1e3" d="M482,241.5v33H417.05l15-63H452A29.99808,29.99808,0,0,1,482,241.5Z"></path><path fill="#dadadc" d="M452,211.5H432.05l-2.44843,10.28345A29.876,29.876,0,0,1,437,241.5v33h45v-33A29.99808,29.99808,0,0,0,452,211.5Z"></path><circle cx="60" cy="215.5" r="30" fill="#e1e1e3"></circle><path fill="#c8c5cc" d="M60,185.5a30.05055,30.05055,0,0,0-7.5.94519,30.0096,30.0096,0,0,1,0,58.10962A30.00325,30.00325,0,1,0,60,185.5Z"></path><rect width="113.5" height="105" x="30" y="334.5" fill="#fff"></rect><polyline fill="#dadadc" points="143.5 439.5 143.5 334.5 256 334.5 256 439.5"></polyline><rect width="113.5" height="105" x="368.5" y="334.5" fill="#dadadc"></rect><rect width="45" height="105" x="437" y="334.5" fill="#c8c5cc"></rect><path fill="#3c3b41" d="M452,204.00019H122.86218l78.32166-28.50659.0332-.01209,137.99512-50.22577c.0235-.008.04633-.01715.0697-.02539L467.07569,78.71748a27.49142,27.49142,0,0,0,16.43212-35.24122l-9.23046-25.37255A27.53776,27.53776,0,0,0,439.02393,1.66279L188.09717,92.997l-.01221.00445L40.60352,146.68281a27.49719,27.49719,0,0,0-16.44141,35.2417L28.81238,194.705a37.28818,37.28818,0,0,0-5.62549,13.67353A7.459,7.459,0,0,0,22.5,211.50019v263a37.54226,37.54226,0,0,0,37.5,37.5H452a37.54225,37.54225,0,0,0,37.5-37.5v-233A37.54226,37.54226,0,0,0,452,204.00019Zm-89.02344,15H422.5575l-11.42859,48H351.548Zm-75,0H347.5575l-11.42859,48H276.548Zm-75,0H272.5575l-11.42859,48H201.548Zm-75,0H197.5575l-11.42859,48H126.548ZM444.15576,15.75751a12.51958,12.51958,0,0,1,16.02637,7.47657l9.23047,25.37256a12.49136,12.49136,0,0,1-7.46826,16.01611L408.36,84.12574l-6.08106-53.12555Zm-56.3706,20.51825,6.081,53.12525-50.85528,18.5097-6.89759-52.827ZM321.672,60.34022l6.89752,52.82666-53.105,19.32855-5.89917-53.189ZM255.05933,84.58649l5.89917,53.18866-55.85266,20.32856-6.45649-52.98462Zm-70.879,25.79914,6.45642,52.98431-52.21326,19.004-6.07623-53.12164ZM38.67578,167.24287a12.434,12.434,0,0,1,7.05957-6.46485l72.11762-26.25,6.07623,53.12134L93.51984,198.71741a37.46,37.46,0,0,0-52.86359-15.3305l-2.39892-6.59326A12.39948,12.39948,0,0,1,38.67578,167.24287ZM60,193.00019a22.53659,22.53659,0,0,1,21.83942,17.09534l.01141.04931A22.49857,22.49857,0,1,1,60,193.00019ZM37.5,245.47981a37.474,37.474,0,0,0,59.83112-26.47962H122.5575l-11.42859,48H37.5Zm0,96.52038H136v90H37.5Zm437,132.5a22.52523,22.52523,0,0,1-22.5,22.5H60a22.52523,22.52523,0,0,1-22.5-22.5v-27.5h437Zm-323.5-42.5v-90h97.5v90Zm112.5,0v-90H361v90Zm211,0H376v-90h98.5Zm0-105H37.5v-45h79.5257c.011.00006.02234.002.03338.002l.023-.002H192.0257c.011.00006.02234.002.03338.002l.023-.002H267.0257c.011.00006.02234.002.03338.002l.023-.002H342.0257c.011.00006.02234.002.03338.002l.023-.002H417.0257c.011.00006.02234.002.03338.002l.023-.002H474.5Zm0-60H426.548l11.42858-48H452a22.52523,22.52523,0,0,1,22.5,22.5Z"></path></svg>